#!OML:ASF C:\Vicon Data\Big\jianyuan-12\jianyuan\Session 1\Capture.male.ASF
:FULLY-SPECIFIED
:DEGREES
153
root -10.685573 17.259636 -13.077939 -0.534856 -27.224105 9.917275
lowerback -9.445334 1.313838 -5.583326 
upperback 2.741186 2.668572 -2.043607 
thorax 8.077172 1.097075 1.404667 
lowerneck 3.556333 -11.715626 -5.411254 
upperneck -5.879565 -15.216653 13.733392 
head -0.806088 -7.815105 5.035120 
rclavicle 0.000000 0.000000 
rhumerus -27.977294 -24.271681 -83.882416 
rradius 37.467926 
rwrist 30.823824 
rhand -20.427531 -4.976874 
rfingers 0.000000 
rthumb 5.927094 -34.873971 
lclavicle 0.000000 0.000000 
lhumerus -52.956533 44.355631 51.941364 
lradius 24.069154 
lwrist -60.750665 
lhand -8.676542 5.401005 
lfingers 0.000000 
lthumb 17.257792 34.654679 
rfemur 2.024575 0.097140 18.565616 
rtibia 38.327390 
rfoot -17.610078 0.979518 
rtoes 1.385572 
lfemur -24.902358 -6.715692 -21.848624 
ltibia 19.967081 
lfoot -6.108429 -1.480420 
ltoes -29.754099 
154
root -10.715235 17.264500 -12.996437 -0.805495 -27.439171 10.267263
lowerback -9.383873 1.265645 -6.009406 
upperback 2.742894 2.658336 -2.073795 
thorax 8.029964 1.074384 1.606839 
lowerneck 3.569968 -11.728976 -5.480066 
upperneck -5.883450 -15.235701 13.814360 
head -0.795437 -7.825662 5.068359 
rclavicle 0.000000 0.000000 
rhumerus -28.332119 -24.815056 -83.555788 
rradius 37.369789 
rwrist 31.359099 
rhand -20.237772 -4.970182 
rfingers 0.000000 
rthumb 6.110277 -34.862068 
lclavicle 0.000000 0.000000 
lhumerus -52.650844 44.239565 52.414544 
lradius 24.132553 
lwrist -60.340117 
lhand -8.784320 5.391606 
lfingers 0.000000 
lthumb 17.154058 34.654376 
rfemur 1.592080 -0.431174 17.958216 
rtibia 39.757437 
rfoot -16.819021 1.046544 
rtoes 2.796841 
lfemur -24.584991 -6.409475 -22.316060 
ltibia 20.245596 
lfoot -6.239231 -2.241222 
ltoes -28.961093 
155
root -10.742158 17.266901 -12.923065 -1.001483 -27.579246 10.530212
lowerback -9.331756 1.196235 -6.260922 
upperback 2.741928 2.602854 -2.154733 
thorax 7.997874 1.039793 1.651149 
lowerneck 3.605836 -11.728341 -5.499743 
upperneck -5.936952 -15.225010 13.948414 
head -0.805216 -7.824761 5.114427 
rclavicle 0.000000 0.000000 
rhumerus -28.621546 -25.331466 -83.331252 
rradius 37.166428 
rwrist 31.825597 
rhand -20.110832 -4.884671 
rfingers 0.000000 
rthumb 6.232819 -34.773016 
lclavicle 0.000000 0.000000 
lhumerus -52.296953 44.116461 52.752081 
lradius 24.168110 
lwrist -59.994275 
lhand -8.873235 5.347996 
lfingers 0.000000 
lthumb 17.068460 34.618192 
rfemur 1.092772 -1.087783 17.445613 
rtibia 41.139631 
rfoot -16.029094 1.107639 
rtoes 4.047711 
lfemur -24.316354 -6.070865 -22.690516 
ltibia 20.443662 
lfoot -6.492393 -2.805435 
ltoes -28.293919 
156
root -10.769385 17.269958 -12.855392 -1.118676 -27.789573 10.824239
lowerback -9.366112 1.138717 -6.532629 
upperback 2.715644 2.573541 -2.256855 
thorax 7.987377 1.017474 1.690739 
lowerneck 3.597392 -11.713137 -5.521648 
upperneck -5.932820 -15.199847 14.072596 
head -0.792954 -7.813513 5.152914 
rclavicle 0.000000 0.000000 
rhumerus -28.844079 -25.706645 -83.165664 
rradius 36.893402 
rwrist 32.130589 
rhand -20.088232 -4.856568 
rfingers 0.000000 
rthumb 6.254625 -34.744249 
lclavicle 0.000000 0.000000 
lhumerus -51.948146 44.016510 53.066275 
lradius 24.215406 
lwrist -59.739718 
lhand -8.866331 5.336694 
lfingers 0.000000 
lthumb 17.075068 34.606265 
rfemur 0.439672 -1.734692 16.911493 
rtibia 42.499590 
rfoot -15.160919 1.078715 
rtoes 4.734494 
lfemur -24.129552 -5.642790 -23.057955 
ltibia 20.583171 
lfoot -6.747202 -3.113028 
ltoes -28.219879 
157
root -10.796291 17.274387 -12.786687 -1.314191 -28.029898 11.153328
lowerback -9.353954 1.109808 -6.833283 
upperback 2.707597 2.583077 -2.352715 
thorax 7.965657 1.012754 1.757708 
lowerneck 3.587588 -11.713218 -5.540614 
upperneck -5.937693 -15.196996 14.147122 
head -0.785329 -7.812877 5.176459 
rclavicle 0.000000 0.000000 
rhumerus -29.121008 -26.183506 -82.962381 
rradius 36.713612 
rwrist 32.425408 
rhand -20.119013 -4.933605 
rfingers 0.000000 
rthumb 6.224960 -34.822141 
lclavicle 0.000000 0.000000 
lhumerus -51.587073 43.911854 53.443202 
lradius 24.285683 
lwrist -59.469092 
lhand -8.731589 5.267184 
lfingers 0.000000 
lthumb 17.204775 34.525540 
rfemur -0.159127 -2.303054 16.340579 
rtibia 43.853011 
rfoot -14.279353 0.970245 
rtoes 5.010927 
lfemur -23.847372 -5.349860 -23.425162 
ltibia 20.701108 
lfoot -7.096908 -3.112199 
ltoes -28.579774 
